# File created by Blade
# Date/Time:  Thu Jan 22 16:10:14 2015
# Frame Rate: 120.000 fps
#------------------------------------------------------
:FULLY-SPECIFIED
:DEGREES
1054
root 2.723112 33.693515 -3.409598 50.157523 24.054044 13.648375
RightUpLeg -34.891359 -44.315700 -15.731726
RightLeg -8.446532 -0.000000 0.000000
RightFoot -1.337974 -32.325236 35.224330
RightToeBase 13.779896 -0.000000 -0.000000
LeftUpLeg -67.731351 -2.600146 10.709185
LeftLeg 12.403949 -0.000000 -0.000000
LeftFoot 3.169049 10.476578 -32.107102
LeftToeBase 10.685420 -0.000000 -0.000000
Spine 69.894582 18.088658 -2.828010
RightShoulder 16.830931 5.972479 -45.549339
RightArm 47.702861 22.148018 31.430066
RightForeArm -8.163504 0.000000 28.171011
RightHand 10.878920 0.000000 -18.066034
RightHandThumb1 -24.326973 -0.000000 -32.862282
LeftShoulder -24.571446 40.485611 3.308831
LeftArm 32.504274 -28.737944 -67.755567
LeftForeArm 27.313791 -0.000000 7.282520
LeftHand -22.532828 -0.000000 8.379556
LeftHandThumb1 -26.253704 0.000000 33.147579
Head 8.293669 25.666145 -15.931710
1055
root 2.766202 33.686801 -3.428713 50.525237 23.994926 13.979723
RightUpLeg -35.164751 -44.682273 -15.825197
RightLeg -8.423242 -0.000000 0.000000
RightFoot -1.160924 -32.292605 35.116260
RightToeBase 13.655619 -0.000000 -0.000000
LeftUpLeg -67.988242 -2.769094 10.384227
LeftLeg 12.384698 -0.000000 -0.000000
LeftFoot 3.221498 10.433579 -32.042100
LeftToeBase 10.553785 -0.000000 -0.000000
Spine 70.237057 18.142356 -2.216204
RightShoulder 17.051992 6.045158 -45.301844
RightArm 47.871222 22.263284 31.284304
RightForeArm -8.851632 -0.000000 27.714315
RightHand 11.015654 -0.000000 -17.696606
RightHandThumb1 -24.326973 -0.000000 -32.862282
LeftShoulder -24.883781 40.585505 2.945303
LeftArm 31.780778 -28.676644 -67.927923
LeftForeArm 27.196609 0.000000 7.101541
LeftHand -22.606334 -0.000000 8.285134
LeftHandThumb1 -26.253704 0.000000 33.147579
Head 8.526861 25.917767 -16.117913
1056
root 2.808274 33.680869 -3.447483 50.851201 23.929216 14.303117
RightUpLeg -35.358402 -44.987164 -15.997689
RightLeg -8.394099 -0.000000 0.000000
RightFoot -1.025630 -32.298099 35.037497
RightToeBase 13.561177 -0.000000 -0.000000
LeftUpLeg -68.194874 -2.954636 10.084856
LeftLeg 12.343880 -0.000000 -0.000000
LeftFoot 3.257313 10.413992 -31.976894
LeftToeBase 10.545032 -0.000000 -0.000000
Spine 70.621785 18.191428 -1.619677
RightShoulder 17.311972 6.269504 -45.016591
RightArm 47.722207 22.188309 30.824038
RightForeArm -9.231662 -0.000000 27.404670
RightHand 11.147711 -0.000000 -17.249149
RightHandThumb1 -24.326973 -0.000000 -32.862282
LeftShoulder -25.280437 40.757895 2.517315
LeftArm 31.204025 -28.756293 -68.214154
LeftForeArm 27.284113 -0.000000 6.948615
LeftHand -22.710439 -0.000000 8.187578
LeftHandThumb1 -26.253704 0.000000 33.147579
Head 8.667164 26.178884 -16.304290
1057
root 2.850203 33.675356 -3.467622 51.169735 23.872268 14.616414
RightUpLeg -35.548798 -45.295592 -16.149158
RightLeg -8.383416 -0.000000 0.000000
RightFoot -1.036656 -32.268729 35.158520
RightToeBase 13.659678 -0.000000 -0.000000
LeftUpLeg -68.393206 -3.138448 9.790777
LeftLeg 12.281996 -0.000000 -0.000000
LeftFoot 3.345087 10.401453 -31.863220
LeftToeBase 10.398775 -0.000000 -0.000000
Spine 70.987969 18.227085 -1.017197
RightShoulder 17.564984 6.169670 -44.800563
RightArm 47.722233 22.446501 30.468946
RightForeArm -9.791629 -0.000000 27.151327
RightHand 11.304175 -0.000000 -17.015171
RightHandThumb1 -24.326973 -0.000000 -32.862282
LeftShoulder -25.714644 40.981862 2.073538
LeftArm 30.739743 -28.848503 -68.545066
LeftForeArm 27.354697 0.000000 6.749339
LeftHand -22.918621 -0.000000 8.087368
LeftHandThumb1 -26.253704 0.000000 33.147579
Head 8.876820 26.504843 -16.453134
